<?xml version="1.0" standalone="no"?>
<!DOCTYPE svg PUBLIC "-//W3C//DTD SVG 20010904//EN"
 "http://www.w3.org/TR/2001/REC-SVG-20010904/DTD/svg10.dtd">
<svg version="1.0" xmlns="http://www.w3.org/2000/svg"
 width="331.000000pt" height="331.000000pt" viewBox="0 0 331.000000 331.000000"
 preserveAspectRatio="xMidYMid meet">
<metadata>
Created by potrace 1.14, written by Peter Selinger 2001-2017
</metadata>
<g transform="translate(0.000000,331.000000) scale(0.100000,-0.100000)"
fill="#000000" stroke="none">
<path d="M1055 3004 c-101 -20 -125 -27 -125 -34 0 -5 -13 -11 -29 -15 -16 -3
-37 -15 -47 -26 -9 -10 -22 -19 -28 -19 -13 0 -136 -121 -136 -133 0 -5 -12
-34 -27 -65 -27 -55 -28 -63 -28 -214 0 -110 -3 -158 -11 -158 -45 0 -170
-108 -197 -170 -7 -14 -16 -28 -22 -32 -6 -4 -10 -57 -10 -127 0 -99 3 -122
17 -138 10 -11 18 -24 18 -30 0 -6 28 -36 62 -67 71 -65 91 -70 229 -64 l99 5
2 -776 3 -776 709 -3 c515 -1 713 1 722 9 11 9 14 56 14 220 l0 209 214 0
c237 0 258 4 312 62 17 18 36 48 43 67 15 45 15 778 0 818 -12 32 -87 113
-105 113 -7 0 -14 6 -16 13 -4 9 -61 13 -232 15 l-227 3 3 137 3 137 35 5 c90
15 202 105 253 202 31 58 43 167 28 255 -26 162 -171 339 -307 375 -24 7 -44
16 -44 20 0 12 -258 10 -265 -2 -3 -5 -15 -10 -26 -10 -35 0 -133 -60 -175
-107 l-40 -46 -16 34 c-20 41 -125 159 -142 159 -7 0 -23 11 -36 25 -13 14
-27 25 -31 25 -3 0 -40 20 -80 45 -61 36 -88 46 -152 55 -77 10 -172 12 -212
4z m188 -69 c128 -27 236 -91 335 -200 57 -62 112 -138 112 -153 0 -10 23 -22
40 -22 5 0 25 24 45 54 38 58 81 92 160 128 42 19 67 23 160 23 102 0 114 -2
175 -31 128 -61 226 -191 250 -335 26 -150 -55 -299 -190 -350 -46 -17 -68
-20 -130 -15 -41 4 -91 7 -110 9 l-35 2 -8 -79 c-13 -130 -57 -186 -147 -186
-72 0 -108 22 -137 87 -15 31 -28 80 -31 108 -2 27 -9 56 -14 63 -8 9 -89 12
-344 12 l-334 0 -9 -22 c-5 -13 -15 -39 -22 -58 -31 -83 -149 -170 -262 -194
-114 -23 -195 5 -251 86 -105 155 -19 368 171 423 60 17 61 22 38 99 -30 98
-12 255 39 347 69 122 231 211 401 217 17 1 61 -5 98 -13z m947 -1840 l0 -865
-650 0 -650 0 0 760 0 759 28 15 c16 8 34 22 41 30 8 9 16 16 20 16 3 0 6
-336 6 -747 l0 -748 550 0 550 0 2 753 c2 457 6 760 12 771 6 9 13 41 17 69 6
51 7 52 40 52 l34 0 0 -865z m526 499 c79 -51 79 -50 79 -458 0 -359 0 -361
-23 -398 -13 -20 -40 -47 -60 -60 -35 -22 -49 -23 -239 -26 l-203 -3 0 50 c0
46 2 51 23 51 301 2 324 6 364 67 16 24 18 59 21 302 4 318 -1 342 -67 379
-35 20 -53 22 -190 22 l-151 0 0 50 0 50 203 0 c202 0 203 0 243 -26z m-131
-159 l25 -24 0 -273 c0 -231 -2 -277 -16 -296 -15 -21 -21 -22 -175 -22 l-159
0 0 320 0 320 150 0 c147 0 152 -1 175 -25z"/>
</g>
</svg>
